<?xml version="1.0" standalone="no"?>
<!DOCTYPE svg PUBLIC "-//W3C//DTD SVG 20010904//EN"
 "http://www.w3.org/TR/2001/REC-SVG-20010904/DTD/svg10.dtd">
<svg version="1.0" xmlns="http://www.w3.org/2000/svg"
 width="369.000000pt" height="369.000000pt" viewBox="0 0 369.000000 369.000000"
 preserveAspectRatio="xMidYMid meet">
<metadata>
Created by potrace 1.14, written by Peter Selinger 2001-2017
</metadata>
<g transform="translate(0.000000,369.000000) scale(0.100000,-0.100000)"
fill="#000000" stroke="none">
<path d="M1550 3253 c-37 -12 -59 -27 -63 -44 -3 -11 -1 -19 4 -19 5 0 9 4 9
9 0 16 52 43 99 51 l46 8 -40 0 c-22 0 -47 -2 -55 -5z"/>
<path d="M1708 3253 c12 -2 30 -2 40 0 9 3 -1 5 -23 4 -22 0 -30 -2 -17 -4z"/>
<path d="M1423 3228 c-11 -13 -23 -30 -28 -38 -4 -8 7 0 24 19 17 18 31 35 31
37 0 8 -7 3 -27 -18z"/>
<path d="M1771 3246 c2 -2 22 -6 44 -9 28 -5 34 -4 20 3 -19 8 -73 14 -64 6z"/>
<path d="M1860 3226 c0 -2 7 -7 16 -10 8 -3 12 -2 9 4 -6 10 -25 14 -25 6z"/>
<path d="M1900 3221 c0 -5 10 -11 23 -15 36 -9 42 -7 21 9 -21 16 -44 19 -44
6z"/>
<path d="M1343 3207 c-13 -5 -23 -16 -23 -24 0 -8 -4 -12 -9 -9 -14 9 -19 -17
-6 -41 11 -21 12 -20 38 24 32 52 32 65 0 50z"/>
<path d="M1617 3210 c-21 -4 -43 -13 -50 -19 -9 -10 -6 -11 14 -6 18 4 28 2
32 -8 3 -9 28 -16 71 -21 98 -10 122 -16 145 -37 11 -11 31 -19 45 -19 13 0
27 -7 30 -15 3 -9 29 -27 58 -39 93 -42 142 -82 334 -277 20 -20 23 -28 13
-34 -9 -6 -4 -15 19 -35 54 -45 120 -201 80 -188 -7 3 -26 27 -43 56 -25 42
-85 111 -85 97 0 -2 -11 7 -25 20 -16 17 -35 25 -58 25 -18 0 -55 7 -82 16
-40 14 -45 18 -30 27 10 5 37 7 61 4 l44 -5 -25 24 c-14 13 -38 27 -53 30 -15
4 -38 13 -50 21 -28 18 -92 27 -92 14 0 -5 5 -11 12 -13 6 -2 -3 -15 -21 -27
-42 -30 -141 -33 -168 -5 -28 28 -44 67 -38 91 4 18 1 23 -15 23 -22 0 -28 25
-7 33 6 3 -5 6 -27 6 -43 1 -88 -23 -129 -69 -32 -35 -53 -38 -62 -9 -7 20 -8
19 -22 -8 -60 -115 18 -292 153 -342 74 -28 198 -29 277 -1 31 11 63 20 71 20
8 0 16 5 18 11 3 9 9 9 25 0 12 -6 37 -11 55 -10 l33 0 -34 12 c-37 13 -59 44
-23 33 13 -4 22 -1 26 9 4 11 13 14 26 10 15 -5 18 -3 14 10 -4 10 -13 13 -26
9 -14 -4 -18 -2 -14 5 13 20 111 9 120 -14 3 -8 -2 -11 -14 -8 -10 3 -21 -1
-25 -8 -5 -7 -4 -10 2 -6 7 4 11 -21 11 -73 0 -44 -3 -82 -8 -85 -5 -3 -2 -18
6 -34 8 -16 12 -40 9 -53 -5 -21 -12 -24 -41 -22 -19 2 -34 -1 -34 -6 0 -6 -7
-10 -15 -10 -8 0 -15 5 -15 10 0 7 -7 7 -21 0 -11 -7 -31 -9 -43 -6 -12 3 -35
2 -51 -3 -18 -4 -37 -4 -47 3 -11 7 -24 6 -40 -1 l-23 -12 23 0 c20 -1 21 -3
10 -21 -18 -28 -40 -25 -62 8 -33 49 -125 92 -146 67 -6 -7 -8 -19 -5 -27 4
-10 -3 -14 -30 -15 -28 -1 -35 3 -35 18 0 10 -25 43 -56 74 -45 44 -59 53 -70
44 -10 -8 -14 -8 -14 0 0 6 5 11 10 11 20 0 9 19 -12 22 -15 2 -24 11 -26 26
-2 12 -7 22 -10 22 -4 0 -25 15 -47 34 -61 53 -144 65 -187 27 -30 -26 -37
-44 -14 -35 11 4 14 -1 12 -20 -1 -14 -5 -29 -8 -32 -3 -3 -4 -23 -1 -45 6
-43 -8 -69 -38 -69 -11 0 -19 -5 -19 -11 0 -6 9 -8 20 -4 26 8 25 -5 -1 -34
-18 -19 -20 -30 -14 -69 4 -26 8 -67 9 -92 0 -25 4 -50 9 -57 4 -6 5 -17 2
-25 -6 -15 32 -95 43 -90 4 2 9 -5 11 -15 2 -10 7 -23 13 -30 6 -8 3 -15 -11
-23 -30 -16 -26 -46 9 -67 16 -9 30 -21 30 -25 0 -10 4 -10 -55 7 -45 13 -48
13 -30 -1 11 -8 19 -20 17 -25 -1 -6 2 -8 8 -4 5 3 13 -1 16 -10 4 -10 14 -15
25 -12 11 3 17 2 14 -3 -3 -4 6 -11 20 -14 14 -4 42 -21 63 -39 34 -30 81 -56
183 -101 20 -9 42 -23 49 -31 9 -11 16 -12 25 -5 13 11 65 3 65 -9 0 -4 23
-18 50 -31 28 -13 50 -30 50 -37 0 -8 7 -16 15 -19 8 -4 15 -12 15 -20 0 -8 4
-14 9 -14 5 0 11 -8 15 -17 3 -10 21 -43 40 -73 19 -30 30 -57 26 -60 -31 -19
-52 -198 -24 -207 6 -2 8 10 6 32 -5 43 27 85 65 85 19 0 23 4 18 19 -4 15 1
20 26 25 44 9 49 8 43 -8 -3 -8 3 -22 14 -32 57 -55 63 -101 16 -123 -14 -6
-23 -7 -20 -3 3 5 -2 9 -10 9 -9 0 -13 -6 -9 -16 8 -21 -5 -6 -19 21 -18 35
-33 32 -62 -12 -18 -27 -27 -55 -28 -84 -1 -34 -3 -40 -12 -28 -9 13 -13 11
-27 -9 -10 -13 -17 -36 -17 -50 0 -22 -4 -26 -21 -22 -15 4 -22 0 -26 -16 -3
-11 -9 -21 -14 -21 -5 0 -9 -7 -9 -15 0 -8 -7 -15 -15 -15 -8 0 -15 -5 -15
-11 0 -6 -13 -24 -30 -41 -16 -16 -30 -26 -30 -21 0 4 -9 -5 -20 -22 -21 -32
-27 -28 -10 8 9 20 9 20 -2 3 -7 -10 -36 -43 -65 -73 -28 -31 -59 -71 -69 -89
-10 -19 -24 -34 -31 -34 -7 0 -17 -9 -23 -21 -6 -11 -31 -29 -56 -39 -32 -14
-44 -25 -44 -40 0 -12 5 -18 10 -15 17 11 11 -10 -8 -26 -13 -11 -25 -13 -41
-7 -18 6 -22 5 -18 -6 9 -24 -21 -74 -53 -88 -16 -7 -33 -22 -39 -33 -10 -20
-10 -20 -17 2 -3 13 -10 20 -15 17 -15 -9 -78 16 -89 34 -7 13 -9 13 -10 3 0
-10 -8 -7 -25 9 -28 26 -33 16 -9 -18 8 -12 11 -22 7 -22 -16 0 -33 23 -33 44
0 13 -3 16 -8 10 -4 -6 -17 -10 -29 -9 -19 1 -22 -2 -16 -23 4 -17 2 -23 -5
-18 -6 4 -21 -3 -32 -14 -11 -11 -25 -18 -30 -15 -6 4 -10 4 -10 1 0 -2 18
-15 40 -27 41 -23 51 -39 25 -39 -8 0 -35 -15 -59 -34 -36 -28 -51 -33 -83
-29 -42 4 -124 19 -163 29 -14 4 21 -17 78 -46 76 -38 102 -56 98 -67 -3 -8
-6 -19 -6 -24 0 -5 -7 -9 -16 -9 -8 0 -22 -6 -29 -12 -8 -7 -22 -20 -32 -28
-16 -13 30 -15 422 -18 344 -2 440 0 447 10 6 10 8 10 8 0 0 -11 68 -13 355
-11 202 1 355 6 355 11 0 5 10 3 22 -3 16 -9 23 -9 26 0 4 13 32 15 32 1 0
-16 291 -11 307 6 8 8 19 14 24 14 13 0 11 -18 -3 -23 -7 -3 -2 -6 12 -6 14
-1 33 8 43 19 9 11 22 20 29 20 8 -1 6 -6 -4 -14 -10 -7 -18 -16 -18 -19 0 -3
118 -6 262 -6 196 -1 259 2 251 10 -11 11 -35 15 -148 26 -27 2 -66 6 -85 9
-19 2 -50 6 -68 8 -60 7 -58 28 3 28 19 0 43 -6 52 -14 13 -10 17 -10 20 0 3
6 11 12 19 12 8 0 14 7 14 15 0 8 9 15 20 15 11 0 20 -4 20 -10 0 -5 6 -10 14
-10 7 0 18 -6 24 -13 12 -14 62 -21 62 -9 0 4 -5 13 -12 20 -19 19 4 34 38 26
25 -6 26 -8 9 -14 -30 -11 -24 -32 18 -67 l39 -33 170 0 169 0 -3 22 c-2 16
-12 25 -33 29 l-30 7 33 1 c32 1 32 1 32 52 0 42 -3 50 -16 45 -8 -3 -38 8
-67 24 -58 33 -44 42 16 10 60 -33 64 -29 66 55 1 67 -1 75 -17 75 -10 0 -27
7 -38 15 -23 17 -19 18 24 6 l32 -10 0 75 0 75 -36 -7 c-27 -5 -35 -4 -30 5 4
6 14 11 22 11 8 0 14 5 14 10 0 6 -6 10 -13 10 -8 0 -24 11 -37 25 -27 29 -15
32 37 10 19 -8 37 -15 39 -15 2 0 4 32 4 70 l0 71 -32 -5 c-136 -23 -173 -30
-252 -53 -241 -69 -439 -192 -477 -296 -7 -20 -16 -37 -19 -37 -11 0 -28 60
-23 82 3 17 2 19 -5 10 -7 -10 -14 5 -26 55 -9 37 -21 86 -27 108 -11 37 -10
44 14 80 14 22 31 60 36 85 35 153 72 282 92 322 5 10 9 23 9 29 0 7 18 36 40
65 22 29 40 56 40 60 0 13 85 84 120 101 19 9 53 35 76 59 42 43 48 62 45 148
0 22 3 43 9 46 5 3 7 16 3 28 -4 17 -10 21 -29 16 -20 -5 -24 -2 -24 15 0 23
-31 42 -38 23 -2 -7 -10 -12 -18 -12 -9 0 -12 -5 -9 -10 4 -6 3 -9 -2 -8 -16
5 -69 -21 -103 -51 -40 -35 -63 -42 -34 -10 39 43 133 95 294 161 157 64 163
67 118 68 -26 0 -57 4 -71 9 -17 7 -33 5 -55 -6 -25 -12 -40 -13 -72 -5 -49
12 -99 2 -137 -28 -47 -36 -126 -117 -153 -154 -16 -22 -33 -36 -47 -36 -31 0
-29 19 7 57 35 37 55 78 59 121 0 6 7 12 15 12 7 0 16 10 20 23 8 31 7 37 -4
37 -5 0 -10 -7 -10 -15 0 -16 -12 -20 -23 -8 -4 3 3 17 15 30 32 34 14 28 -21
-8 -31 -30 -40 -46 -21 -34 6 3 10 1 10 -4 0 -13 -10 -14 -27 -3 -7 4 19 41
74 105 47 54 83 100 81 102 -2 2 -50 -41 -107 -96 -57 -55 -101 -93 -98 -85 4
10 0 12 -16 8 -21 -5 -21 -5 -4 21 20 31 21 38 5 32 -10 -4 -12 10 -10 54 l4
59 -29 -2 c-29 -3 -50 -18 -145 -105 -62 -57 -62 -44 1 22 103 110 242 275
286 341 69 104 77 121 65 150 -5 15 -6 26 0 26 4 0 10 -8 12 -17 3 -14 8 -9
21 16 22 44 22 49 -5 71 -23 18 -38 18 -38 -1 0 -6 4 -8 9 -5 5 3 12 -1 15
-10 11 -28 7 -32 -18 -21 -15 7 -37 37 -55 74 -28 56 -60 97 -45 58 5 -11 2
-14 -10 -9 -10 4 -15 13 -12 20 3 8 1 14 -4 14 -5 0 -10 -6 -13 -12 -2 -7 -3
-3 -1 8 2 12 -6 33 -17 48 -17 21 -18 26 -5 26 9 0 26 -15 38 -34 12 -19 31
-39 41 -45 17 -11 17 -10 3 16 -23 41 -65 85 -75 78 -5 -3 -12 -1 -16 5 -3 5
-11 10 -16 10 -9 0 -7 -17 9 -59 3 -8 -3 -7 -16 5 -12 10 -22 26 -22 36 0 9
-15 27 -32 39 -18 13 -35 26 -38 29 -3 3 -18 12 -35 19 -30 14 -30 14 -6 20
l23 6 -25 14 c-13 7 -31 24 -38 38 -9 16 -19 23 -31 20 -16 -5 -50 17 -96 60
-24 23 -24 14 -1 -18 12 -18 31 -34 41 -37 10 -2 18 -9 18 -14 0 -5 4 -7 9 -3
5 3 12 1 16 -5 10 -16 -41 -12 -55 5 -27 33 -21 4 9 -39 57 -85 3 -52 -127 79
-68 69 -129 125 -134 125 -5 0 -6 -10 -2 -22 6 -23 6 -23 -20 2 -15 13 -24 30
-21 38 2 7 1 10 -4 7 -5 -3 -11 5 -13 17 -2 12 -14 28 -28 35 -35 17 -58 33
-99 70 -20 18 -42 33 -49 33 -7 0 4 -15 25 -32 21 -18 74 -70 119 -116 45 -45
91 -85 104 -87 12 -2 31 -14 41 -26 26 -30 24 -35 -6 -15 -45 29 -39 17 18
-38 67 -63 76 -93 15 -44 -24 18 -52 40 -63 48 -20 16 -43 38 -176 178 -44 45
-84 82 -89 82 -5 0 17 -26 48 -57 32 -32 84 -90 115 -129 54 -68 69 -93 47
-79 -16 10 -11 -1 7 -16 14 -12 16 -12 8 0 -5 10 -4 12 3 7 7 -4 12 -14 12
-22 0 -8 11 -32 25 -55 26 -41 26 -70 -1 -48 -7 6 -12 15 -9 19 3 5 -15 30
-40 55 -25 26 -45 52 -45 58 0 10 -62 76 -187 201 -49 50 -185 119 -266 135
-31 7 -55 16 -52 21 11 17 -70 24 -138 10z m403 -136 c0 -2 -9 0 -20 6 -11 6
-20 13 -20 16 0 2 9 0 20 -6 11 -6 20 -13 20 -16z m666 -319 c13 -13 13 -15 1
-15 -8 0 -20 7 -27 15 -9 11 -10 15 -1 15 7 0 19 -7 27 -15z m-152 -21 c3 -8
29 -26 58 -39 42 -20 54 -22 56 -11 3 12 7 12 30 0 15 -8 39 -19 55 -24 15 -5
27 -14 27 -20 0 -7 -6 -8 -19 0 -11 5 -36 10 -55 10 -28 0 -34 -3 -29 -16 5
-14 3 -15 -15 -5 -26 14 -35 14 -27 1 12 -19 -42 8 -74 37 -17 15 -45 39 -63
53 l-32 25 29 6 c36 6 52 2 59 -17z m-595 -9 c16 -8 31 -22 35 -30 31 -83 -56
-150 -194 -150 -83 1 -127 18 -162 65 -24 33 -17 51 31 78 57 32 71 29 71 -16
0 -45 29 -78 77 -88 62 -12 108 43 97 116 -7 45 0 49 45 25z m519 -68 c56 -36
48 -45 -15 -17 -67 31 -75 38 -60 55 9 11 14 11 22 2 6 -7 30 -25 53 -40z
m-308 19 c0 -3 -4 -8 -10 -11 -5 -3 -10 -1 -10 4 0 6 5 11 10 11 6 0 10 -2 10
-4z m594 -47 c38 -17 43 -40 6 -28 -16 6 -31 17 -34 25 -7 17 -4 17 28 3z
m-729 -29 c-3 -5 -11 -10 -16 -10 -6 0 -7 5 -4 10 3 6 11 10 16 10 6 0 7 -4 4
-10z m606 -33 l22 -32 -31 29 c-18 17 -32 34 -32 38 0 15 18 0 41 -35z m60 26
c13 -15 12 -15 -8 -4 -24 12 -29 21 -14 21 5 0 15 -7 22 -17z m41 -32 c8 -1
39 -63 34 -68 -2 -3 -53 36 -93 71 -2 2 46 0 59 -3z m93 -11 c3 -5 1 -10 -4
-10 -6 0 -11 5 -11 10 0 6 2 10 4 10 3 0 8 -4 11 -10z m-115 -93 c0 -6 -11 0
-25 13 -14 13 -25 28 -25 33 0 6 11 0 25 -13 14 -13 25 -28 25 -33z m290 10
c0 -16 -18 3 -23 25 -6 22 -5 22 8 4 8 -11 15 -24 15 -29z m-221 -51 c0 -21 0
-21 -9 0 -5 12 -13 25 -19 29 -6 3 -16 16 -22 28 -10 18 -6 17 20 -7 17 -17
31 -39 30 -50z m96 6 c4 -20 9 -46 12 -57 3 -11 2 -17 -2 -13 -4 4 -11 24 -15
45 -4 21 -11 47 -15 57 -6 13 -5 17 3 12 6 -4 14 -23 17 -44z m-269 -29 c-7
-7 -26 7 -26 19 0 6 6 6 15 -2 9 -7 13 -15 11 -17z m-1108 -6 c4 -20 -9 -22
-26 -5 -17 17 -15 27 6 24 9 -2 18 -10 20 -19z m1522 -110 c0 -18 -2 -19 -10
-7 -13 20 -13 43 0 35 6 -3 10 -16 10 -28z m-1345 3 c3 -5 1 -10 -4 -10 -6 0
-11 5 -11 10 0 6 2 10 4 10 3 0 8 -4 11 -10z m272 -6 c-3 -3 -12 -4 -19 -1 -8
3 -5 6 6 6 11 1 17 -2 13 -5z m1082 -801 c-8 -10 -20 -22 -26 -26 -7 -4 -13
-12 -13 -18 0 -5 -15 -27 -34 -47 -18 -20 -62 -69 -97 -108 -36 -39 -72 -88
-81 -110 -8 -21 -21 -50 -27 -64 -11 -24 -11 -24 -8 7 4 40 0 37 -105 -57 -46
-40 -69 -57 -107 -76 -7 -4 -32 -24 -55 -46 -22 -21 -79 -57 -126 -81 -47 -23
-87 -45 -90 -48 -16 -18 -190 -91 -230 -96 l-47 -5 13 62 c14 70 24 88 24 44
0 -17 9 -40 21 -52 l20 -23 117 63 c188 100 281 156 336 201 28 24 63 51 79
60 15 10 40 36 56 57 16 22 46 54 68 72 21 18 56 56 77 85 22 30 42 49 46 43
8 -14 73 43 135 119 28 33 54 61 59 61 5 0 2 -8 -5 -17z m-969 -398 c0 -11
-29 -11 -33 -1 -4 10 1 12 14 9 10 -3 19 -7 19 -8z m680 -15 c0 -5 -5 -10 -11
-10 -5 0 -7 5 -4 10 3 6 8 10 11 10 2 0 4 -4 4 -10z m3 -97 c4 -38 11 -90 15
-116 11 -57 3 -51 -26 20 -22 52 -27 98 -16 141 11 40 21 23 27 -45z m-749 3
c-7 -30 -24 -35 -24 -8 0 18 20 45 27 38 2 -2 1 -15 -3 -30z m-27 -61 c12 -48
5 -114 -24 -217 -9 -36 -23 -17 -18 25 4 25 -1 69 -12 110 -14 54 -15 72 -5
87 7 11 12 27 12 36 0 9 7 14 18 12 11 -2 21 -20 29 -53z m-78 -371 c1 -36 -5
-59 -18 -75 -10 -13 -28 -42 -39 -64 -13 -25 -21 -33 -22 -22 0 10 -3 17 -7
15 -5 -3 -23 -11 -42 -19 l-33 -14 6 -108 c5 -77 4 -107 -4 -102 -5 3 -8 11
-5 16 4 5 -1 9 -9 9 -18 0 -21 -26 -7 -62 4 -13 11 -41 14 -63 9 -56 -48 115
-65 195 l-13 63 37 66 c19 36 40 66 44 66 5 1 28 14 51 30 39 27 42 33 36 60
-15 60 2 175 31 214 13 17 44 -126 45 -205z m1786 46 c3 -5 2 -10 -4 -10 -5 0
-13 5 -16 10 -3 6 -2 10 4 10 5 0 13 -4 16 -10z m-91 -55 c14 -14 19 -25 13
-25 -7 0 -19 6 -25 12 -10 10 -15 10 -22 -2 -11 -18 5 -30 43 -30 15 0 27 -4
27 -10 0 -20 -61 -10 -85 14 -14 14 -34 26 -46 28 -13 2 -24 9 -27 17 -3 10 2
12 19 8 13 -3 33 -1 44 3 30 13 32 12 59 -15z m-81 -35 c19 -17 -32 -16 -54 1
l-24 19 35 -6 c19 -4 39 -10 43 -14z m-73 -37 c9 -9 -65 9 -74 18 -5 4 8 3 30
-2 21 -6 41 -13 44 -16z m-134 -38 c10 -8 15 -14 9 -14 -5 0 -19 6 -29 14 -11
8 -15 15 -10 15 6 0 19 -7 30 -15z m299 -115 c3 -5 -4 -6 -15 -3 -11 3 -22 9
-25 13 -3 5 4 6 15 3 11 -3 22 -9 25 -13z m-555 -53 c0 -5 -4 -5 -10 -2 -5 3
-10 14 -10 23 0 15 2 15 10 2 5 -8 10 -19 10 -23z m188 -5 c2 -7 -2 -10 -12
-6 -9 3 -16 11 -16 16 0 13 23 5 28 -10z m407 -12 c3 -5 2 -10 -4 -10 -5 0
-13 5 -16 10 -3 6 -2 10 4 10 5 0 13 -4 16 -10z m-496 -64 c1 -6 -5 -1 -13 9
-8 11 -12 24 -8 29 5 9 20 -17 21 -38z m-162 -8 c-3 -8 -6 -5 -6 6 -1 11 2 17
5 13 3 -3 4 -12 1 -19z m-1362 -126 c-6 -6 -35 62 -34 80 0 7 9 -7 20 -31 11
-24 17 -46 14 -49z m1370 69 c-3 -6 -11 -9 -16 -6 -5 4 -9 -3 -9 -14 0 -19 -6
-21 -47 -20 -34 2 -39 3 -18 6 16 3 42 16 58 29 29 24 46 26 32 5z m427 -29
c9 -10 4 -12 -22 -10 -20 1 -35 -3 -38 -10 -2 -6 -10 -12 -19 -12 -19 0 -13
45 7 46 8 1 19 2 24 3 6 0 1 8 -10 17 -13 11 -9 10 14 -3 19 -10 38 -24 44
-31z m88 38 c24 -8 24 -8 3 -9 -26 -1 -29 -11 -10 -30 10 -11 8 -11 -10 0 -17
10 -19 16 -11 26 8 10 7 12 -5 8 -8 -4 -18 -2 -22 4 -7 13 18 13 55 1z m-420
-10 c0 -5 -5 -10 -11 -10 -5 0 -7 5 -4 10 3 6 8 10 11 10 2 0 4 -4 4 -10z
m140 0 c8 -5 11 -10 5 -10 -5 0 -17 5 -25 10 -8 5 -10 10 -5 10 6 0 17 -5 25
-10z m-465 -33 c17 -13 16 -15 -11 -24 -17 -6 -39 -7 -52 -2 -13 5 -22 5 -22
-1 0 -6 -9 -10 -20 -10 -11 0 -20 5 -20 10 0 6 -16 10 -35 10 -19 0 -35 4 -35
10 0 5 37 11 83 13 45 1 85 4 88 5 3 1 13 -4 24 -11z m27 -39 c-7 -7 -12 -8
-12 -2 0 14 12 26 19 19 2 -3 -1 -11 -7 -17z m178 13 c0 -6 -4 -13 -10 -16 -5
-3 -10 1 -10 9 0 9 5 16 10 16 6 0 10 -4 10 -9z"/>
<path d="M1565 3099 c-86 -12 -145 -48 -145 -89 0 -22 7 -21 87 17 42 20 74
26 157 30 l104 6 76 -42 c42 -23 76 -38 76 -32 0 30 -169 106 -250 113 -30 2
-77 1 -105 -3z"/>
<path d="M1161 3084 c0 -11 3 -14 6 -6 3 7 2 16 -1 19 -3 4 -6 -2 -5 -13z"/>
<path d="M950 3050 c46 -25 64 -25 22 0 -18 11 -38 20 -45 20 -6 -1 4 -9 23
-20z"/>
<path d="M1010 3066 c0 -2 8 -10 18 -17 15 -13 16 -12 3 4 -13 16 -21 21 -21
13z"/>
<path d="M857 3005 c-29 -27 -62 -84 -53 -92 2 -3 11 8 19 24 17 32 57 72 57
56 0 -12 -53 -80 -74 -97 -8 -6 -18 -24 -21 -41 -7 -29 -6 -29 20 10 41 60 87
105 106 105 20 0 31 34 16 49 -18 18 -40 13 -70 -14z"/>
<path d="M2486 3016 c3 -9 10 -16 15 -16 5 0 9 -7 9 -16 0 -8 4 -12 10 -9 5 3
8 0 5 -7 -6 -15 80 -112 108 -121 31 -11 18 14 -38 69 -30 30 -55 57 -55 60 0
6 -16 21 -43 43 -15 12 -17 12 -11 -3z"/>
<path d="M2606 2947 c3 -10 9 -15 12 -12 3 3 0 11 -7 18 -10 9 -11 8 -5 -6z"/>
<path d="M933 2865 c-26 -18 -61 -73 -73 -115 -11 -38 -5 -38 15 0 9 18 38 43
70 61 48 27 53 33 45 50 -13 23 -28 24 -57 4z"/>
<path d="M829 2853 c-33 -39 -41 -53 -33 -53 5 0 19 16 32 35 24 37 24 46 1
18z"/>
<path d="M2530 2856 c0 -2 7 -9 15 -16 13 -11 14 -10 9 4 -5 14 -24 23 -24 12z"/>
<path d="M818 2779 c-9 -19 -23 -68 -33 -109 -9 -41 -21 -90 -27 -109 -7 -22
-7 -36 0 -40 5 -3 15 -37 21 -76 18 -103 46 -206 57 -204 5 1 8 9 6 18 -3 21
42 21 61 1 10 -10 9 -11 -2 -5 -10 6 -12 4 -7 -4 5 -7 14 -10 22 -7 18 7 30
-14 14 -24 -9 -5 -9 -9 -1 -14 6 -4 11 -18 11 -32 0 -35 31 -31 75 9 47 43 85
145 85 228 0 64 -17 149 -30 149 -4 0 -11 16 -14 35 -4 19 -14 51 -24 72 -16
37 -16 37 -20 11 -2 -17 -11 -28 -26 -32 -42 -10 -73 -44 -85 -92 -10 -38 -10
-49 1 -57 9 -6 8 -7 -6 -3 -17 6 -18 2 -14 -32 7 -45 -5 -72 -32 -72 -10 0
-20 -6 -23 -12 -2 -7 -8 -9 -13 -5 -4 4 -3 26 3 48 6 23 9 87 6 147 -2 61 1
131 8 164 14 70 8 93 -13 47z m192 -393 c0 -27 7 -40 32 -60 l33 -25 -35 -36
c-18 -19 -41 -35 -51 -35 -47 0 -114 105 -87 138 19 22 70 52 91 52 13 0 17
-8 17 -34z"/>
<path d="M762 2780 c0 -14 2 -19 5 -12 2 6 2 18 0 25 -3 6 -5 1 -5 -13z"/>
<path d="M2835 2780 c3 -5 8 -10 11 -10 2 0 4 5 4 10 0 6 -5 10 -11 10 -5 0
-7 -4 -4 -10z"/>
<path d="M2806 2737 c6 -17 63 -51 71 -43 4 3 0 6 -7 6 -7 0 -10 3 -7 7 4 3 0
15 -10 25 -19 21 -55 25 -47 5z"/>
<path d="M753 2705 c0 -22 2 -30 4 -17 2 12 2 30 0 40 -3 9 -5 -1 -4 -23z"/>
<path d="M2900 2721 c0 -6 5 -11 11 -11 5 0 7 -4 4 -10 -3 -5 -1 -10 5 -10 15
0 9 32 -7 38 -7 2 -13 -1 -13 -7z"/>
<path d="M836 2681 c-4 -7 -5 -15 -2 -18 9 -9 19 4 14 18 -4 11 -6 11 -12 0z"/>
<path d="M830 2616 c0 -14 5 -26 10 -26 6 0 10 9 10 19 0 11 -4 23 -10 26 -6
4 -10 -5 -10 -19z"/>
<path d="M3138 2596 c-4 -38 0 -56 12 -56 10 0 19 47 13 71 -8 30 -20 22 -25
-15z"/>
<path d="M3030 2601 c0 -9 33 -41 44 -41 4 0 2 8 -3 19 -11 20 -41 36 -41 22z"/>
<path d="M2120 2574 c0 -11 34 -33 49 -34 11 0 10 5 -4 20 -17 19 -45 27 -45
14z"/>
<path d="M3060 2526 c0 -13 53 -86 62 -86 5 0 1 14 -9 31 -19 31 -53 67 -53
55z"/>
<path d="M2147 2513 c-3 -5 1 -14 9 -21 12 -10 14 -10 14 2 0 17 -16 30 -23
19z"/>
<path d="M3020 2481 c0 -5 5 -13 10 -16 6 -3 10 -2 10 4 0 5 -4 13 -10 16 -5
3 -10 2 -10 -4z"/>
<path d="M2030 2341 c0 -4 11 -6 25 -3 14 2 25 6 25 8 0 2 -11 4 -25 4 -14 0
-25 -4 -25 -9z"/>
<path d="M867 2229 c20 -33 27 -32 18 3 -4 14 -13 25 -20 25 -12 0 -11 -6 2
-28z"/>
<path d="M927 2093 c4 -16 7 -43 7 -60 0 -18 4 -33 8 -33 4 0 8 5 8 10 0 6 5
10 10 10 6 0 10 -7 10 -15 0 -8 -4 -15 -10 -15 -11 0 -12 -52 -1 -90 4 -14 13
-24 20 -22 7 1 15 -7 18 -18 3 -11 10 -20 15 -20 5 0 7 4 3 9 -3 5 -1 12 5 16
5 3 10 32 10 64 0 55 -3 61 -40 100 -22 22 -42 52 -46 66 -3 14 -10 25 -15 25
-5 0 -6 -12 -2 -27z m53 -123 c0 -5 -5 -10 -11 -10 -5 0 -7 5 -4 10 3 6 8 10
11 10 2 0 4 -4 4 -10z"/>
<path d="M860 2061 c0 -5 5 -13 10 -16 6 -3 10 -2 10 4 0 5 -4 13 -10 16 -5 3
-10 2 -10 -4z"/>
<path d="M3255 1630 c-3 -5 -1 -10 4 -10 6 0 11 5 11 10 0 6 -2 10 -4 10 -3 0
-8 -4 -11 -10z"/>
<path d="M3285 1610 c3 -5 8 -10 11 -10 2 0 4 5 4 10 0 6 -5 10 -11 10 -5 0
-7 -4 -4 -10z"/>
<path d="M80 437 c-8 -7 -30 -31 -47 -54 -29 -37 -33 -49 -33 -102 l0 -60 43
24 c57 33 68 32 61 -5 -7 -35 -9 -34 44 -16 53 19 224 38 279 31 24 -3 64 -7
91 -10 l47 -5 -40 16 c-24 9 -95 19 -175 24 -82 5 -136 12 -138 19 -2 6 -13
11 -24 11 -20 0 -20 1 -5 18 19 21 94 50 164 62 34 7 9 8 -89 5 -95 -3 -138
-1 -138 6 0 7 -12 8 -32 4 l-33 -7 24 26 c26 27 26 34 1 13z"/>
<path d="M3130 70 c0 -5 5 -10 10 -10 6 0 10 5 10 10 0 6 -4 10 -10 10 -5 0
-10 -4 -10 -10z"/>
</g>
</svg>
